<?xml version="1.0" standalone="no"?>
<!DOCTYPE svg PUBLIC "-//W3C//DTD SVG 20010904//EN"
 "http://www.w3.org/TR/2001/REC-SVG-20010904/DTD/svg10.dtd">
<svg version="1.0" xmlns="http://www.w3.org/2000/svg"
 width="920.000000pt" height="920.000000pt" viewBox="0 0 920.000000 920.000000"
 preserveAspectRatio="xMidYMid meet">

<g transform="translate(0.000000,920.000000) scale(0.100000,-0.100000)"
fill="#000000" stroke="none">
<path d="M4355 9193 c-187 -9 -526 -54 -712 -94 -573 -123 -1157 -377 -1643
-715 -865 -600 -1507 -1477 -1804 -2464 -112 -371 -166 -686 -188 -1098 -34
-635 74 -1277 321 -1898 543 -1370 1685 -2389 3106 -2773 439 -118 964 -171
1420 -142 837 53 1619 323 2330 802 752 507 1337 1238 1683 2104 165 414 263
816 314 1285 16 152 16 651 0 810 -52 507 -162 942 -347 1375 -351 820 -922
1512 -1660 2011 -841 568 -1825 846 -2820 797z m660 -937 c434 -53 802 -162
1198 -355 547 -267 1047 -694 1398 -1196 355 -507 568 -1070 645 -1705 22
-177 25 -588 5 -760 -48 -434 -148 -795 -322 -1173 -353 -765 -971 -1397
-1725 -1767 -185 -91 -281 -129 -477 -194 -384 -128 -718 -180 -1142 -180
-347 0 -640 38 -940 120 -1064 293 -1933 1026 -2394 2022 -395 851 -447 1823
-145 2705 253 737 732 1379 1367 1829 355 252 810 463 1222 567 175 44 459 89
660 105 109 8 526 -3 650 -18z"/>
<path d="M2910 6663 c-60 -10 -153 -47 -207 -82 -123 -80 -198 -295 -163 -466
28 -136 11 -116 738 -839 l672 -670 -673 -675 c-727 -730 -709 -710 -737 -846
-25 -119 7 -272 80 -385 24 -37 50 -61 99 -89 104 -61 160 -76 281 -76 189 1
129 -47 916 737 l680 679 672 -668 c624 -621 678 -671 748 -708 76 -40 77 -40
188 -40 96 1 120 4 178 27 141 56 200 115 256 256 23 58 26 82 27 178 0 108
-1 112 -38 185 -35 69 -79 116 -707 749 l-669 675 678 680 c783 786 735 726
736 915 0 121 -15 177 -76 282 -34 58 -49 73 -107 107 -102 59 -161 76 -277
76 -110 0 -167 -16 -240 -65 -22 -15 -339 -325 -705 -689 l-665 -661 -670 671
c-507 507 -682 677 -720 697 -86 44 -199 61 -295 45z"/>
</g>
</svg>
